<svg width="11" height="15" viewBox="0 0 11 15" fill="none" xmlns="http://www.w3.org/2000/svg">
<path d="M5.02187 14.4766C1.02969 8.73438 0.318749 8.13281 0.318749 6C0.318749 3.10156 2.64297 0.75 5.56875 0.75C8.46719 0.75 10.8187 3.10156 10.8187 6C10.8187 8.13281 10.0805 8.73438 6.08828 14.4766C5.84219 14.8594 5.26797 14.8594 5.02187 14.4766ZM5.56875 8.1875C6.77187 8.1875 7.75625 7.23047 7.75625 6C7.75625 4.79688 6.77187 3.8125 5.56875 3.8125C4.33828 3.8125 3.38125 4.79688 3.38125 6C3.38125 7.23047 4.33828 8.1875 5.56875 8.1875Z" fill="#161616" fill-opacity="0.92"/>
</svg>
