<svg width="15" height="15" viewBox="0 0 15 15" fill="none" xmlns="http://www.w3.org/2000/svg">
<path d="M12.8262 2.1626C14.1387 3.4751 14.9512 5.19385 14.9512 7.06885C14.9512 10.8813 11.7637 14.0063 7.91999 14.0063C6.76374 14.0063 5.63874 13.6938 4.60749 13.1626L0.951239 14.1001L1.91999 10.5063C1.32624 9.4751 0.982489 8.2876 0.982489 7.0376C0.982489 3.2251 4.10749 0.100098 7.91999 0.100098C9.79499 0.100098 11.545 0.850098 12.8262 2.1626ZM7.91999 12.8188C11.1075 12.8188 13.7637 10.2251 13.7637 7.06885C13.7637 5.50635 13.1075 4.06885 12.0137 2.9751C10.92 1.88135 9.48249 1.2876 7.95124 1.2876C4.76374 1.2876 2.16999 3.88135 2.16999 7.0376C2.16999 8.13135 2.48249 9.19385 3.04499 10.1313L3.20124 10.3501L2.60749 12.4751L4.79499 11.8813L4.98249 12.0063C5.88874 12.5376 6.88874 12.8188 7.91999 12.8188ZM11.1075 8.50635C11.2637 8.6001 11.3887 8.63135 11.42 8.7251C11.4825 8.7876 11.4825 9.13135 11.3262 9.5376C11.17 9.94385 10.4825 10.3188 10.17 10.3501C9.60749 10.4438 9.16999 10.4126 8.07624 9.9126C6.32624 9.1626 5.20124 7.4126 5.10749 7.31885C5.01374 7.19385 4.41999 6.38135 4.41999 5.50635C4.41999 4.6626 4.85749 4.25635 5.01374 4.06885C5.16999 3.88135 5.35749 3.8501 5.48249 3.8501C5.57624 3.8501 5.70124 3.8501 5.79499 3.8501C5.91999 3.8501 6.04499 3.81885 6.20124 4.1626C6.32624 4.50635 6.70124 5.3501 6.73249 5.44385C6.76374 5.5376 6.79499 5.63135 6.73249 5.75635C6.41999 6.4126 6.04499 6.38135 6.23249 6.69385C6.91999 7.8501 7.57624 8.25635 8.60749 8.75635C8.76374 8.8501 8.85749 8.81885 8.98249 8.7251C9.07624 8.6001 9.41999 8.19385 9.51374 8.0376C9.63874 7.8501 9.76374 7.88135 9.91999 7.94385C10.0762 8.00635 10.92 8.4126 11.1075 8.50635Z" fill="#DF0408"/>
</svg>
