<svg width="14" height="14" viewBox="0 0 14 14" fill="none" xmlns="http://www.w3.org/2000/svg">
<path d="M11.7894 1.99609C13.0199 3.22656 13.7816 4.83789 13.7816 6.5957C13.7816 10.1699 10.7934 13.0996 7.18984 13.0996C6.10585 13.0996 5.05117 12.8066 4.08437 12.3086L0.656635 13.1875L1.56484 9.81836C1.0082 8.85156 0.685932 7.73828 0.685932 6.56641C0.685932 2.99219 3.61562 0.0625 7.18984 0.0625C8.94765 0.0625 10.5883 0.765625 11.7894 1.99609ZM7.18984 11.9863C10.1781 11.9863 12.6684 9.55469 12.6684 6.5957C12.6684 5.13086 12.0531 3.7832 11.0277 2.75781C10.0023 1.73242 8.65468 1.17578 7.21914 1.17578C4.23085 1.17578 1.79921 3.60742 1.79921 6.56641C1.79921 7.5918 2.09218 8.58789 2.61953 9.4668L2.76601 9.67188L2.20937 11.6641L4.26015 11.1074L4.43593 11.2246C5.28554 11.7227 6.22304 11.9863 7.18984 11.9863ZM10.1781 7.94336C10.3246 8.03125 10.4418 8.06055 10.4711 8.14844C10.5297 8.20703 10.5297 8.5293 10.3832 8.91016C10.2367 9.29102 9.59218 9.64258 9.29921 9.67188C8.77187 9.75977 8.36171 9.73047 7.33632 9.26172C5.6957 8.55859 4.64101 6.91797 4.55312 6.83008C4.46523 6.71289 3.90859 5.95117 3.90859 5.13086C3.90859 4.33984 4.31874 3.95898 4.46523 3.7832C4.61171 3.60742 4.78749 3.57812 4.90468 3.57812C4.99257 3.57812 5.10976 3.57812 5.19765 3.57812C5.31484 3.57812 5.43203 3.54883 5.57851 3.87109C5.6957 4.19336 6.04726 4.98438 6.07656 5.07227C6.10585 5.16016 6.13515 5.24805 6.07656 5.36523C5.78359 5.98047 5.43203 5.95117 5.60781 6.24414C6.25234 7.32812 6.86757 7.70898 7.83437 8.17773C7.98085 8.26562 8.06874 8.23633 8.18593 8.14844C8.27382 8.03125 8.59609 7.65039 8.68398 7.50391C8.80117 7.32812 8.91835 7.35742 9.06484 7.41602C9.21132 7.47461 10.0023 7.85547 10.1781 7.94336Z" fill="#161616"/>
</svg>
