<svg width="15" height="15" viewBox="0 0 15 15" fill="none" xmlns="http://www.w3.org/2000/svg">
<path d="M12.0563 2.36255C13.3688 3.67505 14.1813 5.3938 14.1813 7.2688C14.1813 11.0813 10.9938 14.2063 7.15 14.2063C5.99375 14.2063 4.86875 13.8938 3.8375 13.3625L0.18125 14.3L1.15 10.7063C0.55625 9.67505 0.2125 8.48755 0.2125 7.23755C0.2125 3.42505 3.3375 0.300049 7.15 0.300049C9.025 0.300049 10.775 1.05005 12.0563 2.36255ZM7.15 13.0188C10.3375 13.0188 12.9938 10.425 12.9938 7.2688C12.9938 5.7063 12.3375 4.2688 11.2438 3.17505C10.15 2.0813 8.7125 1.48755 7.18125 1.48755C3.99375 1.48755 1.4 4.0813 1.4 7.23755C1.4 8.3313 1.7125 9.3938 2.275 10.3313L2.43125 10.55L1.8375 12.675L4.025 12.0813L4.2125 12.2063C5.11875 12.7375 6.11875 13.0188 7.15 13.0188ZM10.3375 8.7063C10.4938 8.80005 10.6188 8.8313 10.65 8.92505C10.7125 8.98755 10.7125 9.3313 10.5563 9.73755C10.4 10.1438 9.7125 10.5188 9.4 10.55C8.8375 10.6438 8.4 10.6125 7.30625 10.1125C5.55625 9.36255 4.43125 7.61255 4.3375 7.5188C4.24375 7.3938 3.65 6.5813 3.65 5.7063C3.65 4.86255 4.0875 4.4563 4.24375 4.2688C4.4 4.0813 4.5875 4.05005 4.7125 4.05005C4.80625 4.05005 4.93125 4.05005 5.025 4.05005C5.15 4.05005 5.275 4.0188 5.43125 4.36255C5.55625 4.7063 5.93125 5.55005 5.9625 5.6438C5.99375 5.73755 6.025 5.8313 5.9625 5.9563C5.65 6.61255 5.275 6.5813 5.4625 6.8938C6.15 8.05005 6.80625 8.4563 7.8375 8.9563C7.99375 9.05005 8.0875 9.0188 8.2125 8.92505C8.30625 8.80005 8.65 8.3938 8.74375 8.23755C8.86875 8.05005 8.99375 8.0813 9.15 8.1438C9.30625 8.2063 10.15 8.61255 10.3375 8.7063Z" fill="white"/>
</svg>
